# xmcd
#
# Track frame offsets: 
#        150
#        22454
#        42346
#        75877
#        90052
#        124327
#        150092
#        163421
#        176364
#        196606
#        215277
#        236755
#
# Disc length: 3496 seconds
#
# Revision: 6
# Processed by: cddbd v1.5.2PL0 Copyright (c) Steve Scherf et al.
# Submitted via: ExactAudioCopyFreeDBPlugin 1.0
#
DISCID=890da60c
DTITLE=Buddy Guy - Skin Deep
DYEAR=2008
DGENRE=Blues
TTITLE0=Best Damn Fool
TTITLE1=Buddy Guy feat. Derek Trucks and Susan Tedeschi - Too Many Tea
TTITLE1=rs
TTITLE2=Lyin' Like A Dog
TTITLE3=Show Me The Money
TTITLE4=Buddy Guy feat. Eric Clapton - Everytime I Sing The Blues
TTITLE5=Buddy Guy feat. Robert Randolph - Out In The Woods
TTITLE6=Hammer And A Nail
TTITLE7=Buddy Guy feat. Robert Randolph - That's My Home
TTITLE8=Buddy Guy feat. Derek Trucks - Skin Deep
TTITLE9=Who's Gonna Fill Those Shoes
TTITLE10=Smell The Funk
TTITLE11=I Found Happiness
EXTD=YEAR: 2008
EXTT0=
EXTT1=
EXTT2=
EXTT3=
EXTT4=
EXTT5=
EXTT6=
EXTT7=
EXTT8=
EXTT9=
EXTT10=
EXTT11=
PLAYORDER=
